<svg version="1.1" id="Layer_1" xmlns="http://www.w3.org/2000/svg" xmlns:xlink="http://www.w3.org/1999/xlink" x="0px" y="0px"
	 width="100%" viewBox="0 0 1024 1024" enable-background="new 0 0 1024 1024" xml:space="preserve">
<path fill="#000000" opacity="1.000000" stroke="none" 
	d="
M668.564087,487.921448 
	C670.871399,482.985901 673.510071,478.979034 678.738647,478.246368 
	C680.100098,479.395844 679.742493,480.183411 679.450012,480.960205 
	C674.031372,495.355896 682.048157,505.963104 697.507568,504.529785 
	C711.993774,503.186646 721.315308,494.675415 726.384949,481.647369 
	C731.477539,468.560059 729.591492,455.702972 722.561890,443.721039 
	C704.072571,412.205902 662.351746,406.937836 634.654724,431.894531 
	C614.092041,450.422821 600.828918,473.770477 588.898438,498.043854 
	C573.023560,530.342346 558.906738,563.474426 545.692383,596.913025 
	C541.034790,608.699036 530.990662,609.203430 522.065552,615.299194 
	C517.284851,564.015808 511.016998,514.439941 505.159119,464.263855 
	C502.877228,465.392487 502.584412,467.079132 501.944946,468.435181 
	C490.650299,492.387695 479.906525,516.617737 467.965210,540.242615 
	C455.326935,565.246338 441.487946,589.648682 420.686371,609.122253 
	C409.615326,619.486450 397.277649,628.022095 382.461792,632.002014 
	C362.441742,637.379883 343.433411,634.101501 325.786041,623.499207 
	C304.302246,610.592102 289.942444,592.146790 285.336945,567.268127 
	C282.092010,549.739014 282.047394,532.244385 294.362549,517.371033 
	C303.360535,506.503906 314.498169,499.420013 329.176117,499.721771 
	C344.632355,500.039581 357.053619,512.125488 356.269043,525.944885 
	C355.960815,531.374023 353.625732,535.904114 349.271606,539.205811 
	C347.613647,540.463074 345.768768,541.902039 343.429962,540.638611 
	C342.458191,538.845337 343.865021,537.768005 344.511719,536.516113 
	C348.356964,529.072754 346.692566,522.971985 339.583954,518.575378 
	C329.608185,512.405457 314.906128,515.632568 306.308167,525.879456 
	C292.666229,542.137451 292.312134,565.125000 305.717590,582.661133 
	C317.644226,598.262817 333.747162,605.987366 353.187500,607.887634 
	C383.140472,610.815369 405.085663,596.288208 423.953125,575.633484 
	C443.575043,554.152832 457.229065,528.663513 470.211761,502.889526 
	C481.151733,481.170959 491.615204,459.211365 501.345459,436.914490 
	C501.998077,435.419128 502.959381,433.986145 502.796082,432.094788 
	C502.396667,431.867676 501.983276,431.421875 501.592194,431.440704 
	C487.114929,432.137024 472.674591,433.157013 458.963501,438.432800 
	C456.500580,439.380524 454.135162,440.734192 451.952515,442.232269 
	C440.066895,450.390045 439.372833,461.185333 450.018677,470.822540 
	C456.860565,477.016235 456.914581,477.062622 450.705139,484.289307 
	C447.669312,487.822479 444.382782,491.139832 441.221619,494.565826 
	C438.431458,497.589661 435.328033,497.691589 431.716980,496.010529 
	C422.001404,491.487671 415.417328,478.345154 417.157593,467.106476 
	C420.047729,448.442230 431.997375,437.447174 448.418396,430.612183 
	C462.351501,424.812744 477.319672,422.999908 492.114899,420.733643 
	C505.259979,418.720154 518.582153,417.744568 531.495544,414.408081 
	C535.537598,413.363678 536.546326,414.988678 536.881226,418.424622 
	C538.301392,432.992676 539.796570,447.553406 541.253662,462.117859 
	C543.488586,484.457001 545.425232,506.831329 548.857788,529.032227 
	C549.759094,534.861206 549.646362,540.897156 552.019226,547.198059 
	C554.299622,544.458801 554.806824,541.679688 555.842468,539.171997 
	C570.466125,503.763611 584.631714,468.144470 603.895325,434.873901 
	C610.189880,424.002350 617.781677,414.208008 626.713623,405.294952 
	C646.905212,385.145966 675.028809,383.587738 698.464478,397.176117 
	C721.324890,410.430878 735.961975,430.262970 740.594482,456.258789 
	C744.611450,478.799774 739.527527,499.011261 720.076843,513.638916 
	C708.271790,522.516785 685.603882,523.746948 674.842346,511.978912 
	C668.550232,505.098328 665.355042,497.600464 668.564087,487.921448 
z"/>
<path fill="#000000" opacity="1.000000" stroke="none" 
	d="
M518.826782,278.178528 
	C522.735962,282.221558 526.629272,284.157806 532.397766,282.956268 
	C540.815369,281.203003 547.728882,286.346375 550.401550,295.160278 
	C551.117493,297.521210 551.959900,299.875610 551.710083,302.609009 
	C547.738159,304.865631 543.281067,304.190491 539.059082,304.546234 
	C536.536865,304.758728 536.138245,302.264221 535.570374,300.355988 
	C535.264343,299.327545 534.752930,298.470703 533.581177,298.444611 
	C532.449768,298.419403 531.824585,299.211029 531.353271,300.155212 
	C529.787903,303.291138 530.299011,306.336182 531.894531,309.240326 
	C533.576660,312.301941 536.255005,310.864197 538.585266,310.425903 
	C548.256348,308.606934 557.993408,307.545197 569.578369,307.719940 
	C562.959778,303.895264 557.371765,300.860779 555.035889,294.677979 
	C552.795532,288.747925 554.989746,281.741272 560.620972,278.087006 
	C562.622498,290.479340 573.190002,291.953094 582.301147,294.971283 
	C638.260498,313.508240 681.500366,347.717804 711.078918,398.896332 
	C711.394348,399.442017 711.558350,400.075195 711.802856,400.692261 
	C709.937622,401.766541 709.252930,400.180756 708.365540,399.413513 
	C704.025391,395.660858 699.177124,392.639160 693.773193,390.905853 
	C689.954407,389.680969 687.691406,387.283112 685.494507,384.221283 
	C661.755188,351.135773 630.809326,328.752563 589.919678,322.791626 
	C570.505859,319.961426 551.015686,322.068909 532.327209,328.899902 
	C531.549744,329.184082 530.803345,329.562256 530.064270,329.939331 
	C529.623108,330.164429 529.224365,330.472809 529.093750,330.557495 
	C528.866760,332.705811 530.348206,333.194000 531.277893,334.037994 
	C538.431335,340.531952 545.652100,346.952667 552.746582,353.510132 
	C554.707458,355.322540 557.484009,357.034668 554.120300,360.351349 
	C548.675293,365.720398 548.134460,366.039276 544.034790,362.478027 
	C536.487610,355.922119 528.959656,349.351013 520.949097,343.349457 
	C496.962128,325.378235 469.856384,319.347656 440.383301,321.938477 
	C378.936798,327.339996 335.175507,376.464691 323.116486,424.561279 
	C321.413055,431.355225 320.468628,438.245239 320.129486,445.267029 
	C319.928040,449.437714 321.323364,450.857086 325.428741,451.857300 
	C341.408569,455.750610 354.202576,464.050446 360.549713,480.047668 
	C365.003754,491.273560 363.850372,502.042572 357.178680,513.585815 
	C353.992767,507.789673 348.684753,505.014221 351.143311,497.279633 
	C353.631531,489.451538 349.964478,481.938110 344.209991,475.921295 
	C339.178650,470.660583 333.352814,466.844727 326.016724,465.613495 
	C324.966248,468.115784 326.540283,469.525208 327.289093,471.056396 
	C330.379578,477.375763 332.640289,483.928162 333.946655,490.863708 
	C334.672882,494.719269 333.868195,496.411102 329.590485,496.355011 
	C322.718079,496.264893 322.781097,496.454742 321.500153,489.587952 
	C320.360626,483.479248 318.656525,477.565613 314.190277,472.908691 
	C312.811493,471.470978 311.338440,469.775116 309.075439,470.452850 
	C306.465668,471.234558 307.289307,473.706543 307.106293,475.561584 
	C306.931152,477.337097 307.068481,479.143402 307.068481,481.223083 
	C301.033722,481.007751 295.397400,481.029510 292.935364,487.483948 
	C291.803345,490.451599 291.817932,493.415039 294.151764,495.885895 
	C295.368561,497.174194 296.828644,497.989288 298.593506,495.837738 
	C295.798340,492.905090 294.209839,489.619446 297.713989,486.098785 
	C300.460175,483.339661 305.112335,483.254089 308.762726,485.790192 
	C312.077179,488.092896 314.313904,494.090912 313.121246,497.316986 
	C312.534760,498.903351 311.166565,499.560150 309.834869,500.191345 
	C305.276398,502.352112 301.133972,505.167297 297.475983,508.579071 
	C295.210327,510.692200 293.254822,510.640228 290.779480,509.204834 
	C283.269073,504.849792 279.619598,498.112854 279.904694,489.730530 
	C280.192444,481.271881 283.621826,474.225891 292.049805,470.651886 
	C293.855560,469.886108 295.631470,469.049988 298.053253,467.962463 
	C291.794678,468.067383 286.687592,467.073975 283.008881,460.910217 
	C293.759064,460.160614 295.396027,452.142883 297.629242,444.529236 
	C316.735474,379.391174 356.505005,332.028961 418.634705,303.890167 
	C427.450775,299.897339 436.458984,296.454590 445.741486,293.729584 
	C454.697998,291.100220 464.301483,289.389801 466.581390,277.998077 
	C477.833893,283.956268 474.864746,296.007477 459.530487,307.015686 
	C466.134216,307.590607 472.113953,307.994415 478.062408,308.672485 
	C481.682007,309.085083 485.307526,309.712616 488.830139,310.628906 
	C491.940399,311.437927 494.955383,312.331177 496.124939,308.251282 
	C497.206024,304.479889 498.144104,300.471344 493.697845,297.792175 
	C493.038422,298.303650 492.587738,298.544250 492.283600,298.907532 
	C490.748138,300.741577 491.918488,304.781708 488.717163,304.863861 
	C484.968353,304.960052 481.159760,303.926758 477.431519,303.128967 
	C475.497131,302.715027 475.689178,300.920013 475.952759,299.417297 
	C478.219208,286.496063 486.941071,280.671143 497.152924,283.211121 
	C502.976868,284.659729 507.012238,280.325409 510.407562,276.019897 
	C511.506531,274.626343 511.847931,272.636017 513.922058,271.687012 
	C516.180237,273.190063 516.756775,276.056213 518.826782,278.178528 
M510.502594,317.983612 
	C512.585205,319.489441 514.563049,319.907623 516.741699,317.963593 
	C518.119080,316.734558 518.990540,315.598083 518.228394,313.716156 
	C516.106079,308.475861 516.687805,302.971954 516.742981,297.532745 
	C516.767334,295.140442 516.992737,292.246368 513.956055,292.122955 
	C510.842499,291.996429 510.244568,294.765411 510.277985,297.474274 
	C510.349152,303.246796 510.926483,309.063873 508.844391,314.662323 
	C508.378754,315.914429 508.766541,316.926147 510.502594,317.983612 
z"/>
<path fill="#000000" opacity="1.000000" stroke="none" 
	d="
M673.756470,644.771240 
	C694.171387,622.236877 706.412598,586.940796 705.626038,565.029663 
	C667.390747,558.623779 655.654419,526.917542 665.819885,507.212585 
	C669.406921,512.193115 674.669128,515.080383 674.296143,522.651611 
	C673.654358,535.678528 687.082336,549.377441 699.222839,549.087402 
	C699.001709,545.781921 696.754761,543.352356 695.612061,540.500854 
	C694.244019,537.087219 693.018066,533.643250 692.439636,530.005859 
	C692.081360,527.753235 690.223755,524.958740 694.082031,523.908447 
	C699.398254,522.461243 703.175659,523.921753 704.210815,527.831543 
	C705.627502,533.182739 707.294556,538.404602 710.942505,542.720276 
	C712.512329,544.577454 713.946716,547.301758 716.902161,546.241882 
	C719.453796,545.326782 718.795288,542.555542 718.714294,540.503723 
	C718.582275,537.161682 719.659180,535.861816 723.258545,535.782104 
	C729.413025,535.645935 733.926270,530.736206 733.630432,525.290955 
	C733.399231,521.033081 731.237976,519.668579 726.692139,521.540344 
	C730.540100,523.865845 731.278809,526.999512 728.714478,530.314575 
	C726.458557,533.231018 723.228516,534.054565 719.732056,532.794739 
	C715.649536,531.323730 713.058228,528.509460 712.697632,523.994690 
	C712.531677,521.916992 714.064514,521.166748 715.540466,520.327393 
	C720.787537,517.343628 725.655273,513.809570 729.646301,509.280396 
	C731.731445,506.914062 733.591248,506.656494 736.062439,508.389099 
	C743.188538,513.385376 746.917236,520.265869 746.101196,528.882202 
	C745.330627,537.018677 741.375549,543.379333 733.161255,546.277100 
	C732.394226,546.547668 731.654358,546.895203 730.198059,547.498596 
	C735.128967,549.116516 740.368347,549.463257 741.611084,555.738770 
	C733.375366,556.889648 730.265137,562.904541 728.368896,569.715454 
	C709.587708,637.176575 666.283691,683.119995 603.644592,712.165283 
	C593.800354,716.729980 583.607300,720.338562 573.277832,723.612122 
	C566.656799,725.710510 566.678528,725.779114 559.048401,736.277527 
	C553.843567,733.093750 551.806458,725.633484 554.580322,719.687256 
	C557.341614,713.768005 563.281616,711.387024 569.149902,707.346863 
	C556.954163,707.404419 545.902771,706.629944 535.017212,704.223694 
	C532.130310,703.585510 530.548157,705.325378 529.874695,707.783936 
	C528.888428,711.384216 528.404724,715.007874 532.236938,717.427734 
	C532.736145,717.218323 533.086731,717.154236 533.328308,716.956787 
	C535.273743,715.366516 534.476196,711.314880 537.356934,711.115845 
	C541.102844,710.857117 544.945435,711.652344 548.713989,712.211853 
	C550.577881,712.488525 550.698853,713.997009 550.583435,715.690796 
	C549.885498,725.933655 540.926880,733.273132 530.943909,731.418945 
	C523.994934,730.128174 519.472107,733.418518 515.732605,738.633484 
	C514.692932,740.083435 514.282898,742.021057 512.499390,742.992004 
	C510.067322,741.895813 509.688324,739.305969 508.262573,737.547485 
	C504.532562,732.946838 500.193268,730.470459 493.937744,731.633423 
	C484.222076,733.439514 474.762054,725.191467 474.767517,715.286560 
	C474.768066,714.292358 474.609833,712.881409 475.610077,712.605896 
	C478.468170,711.818787 481.421265,711.375732 484.338043,710.802917 
	C488.155426,710.053223 489.843811,712.090637 490.590576,715.489319 
	C490.721161,716.083740 491.295502,716.580627 491.930542,717.512146 
	C496.990082,715.698975 495.949738,711.553711 495.380066,708.083496 
	C494.823181,704.691345 492.822968,703.165100 488.858826,704.276245 
	C478.513458,707.175964 467.848175,707.503296 456.191833,707.153320 
	C463.921570,712.125000 472.221741,715.853027 472.052124,725.975647 
	C471.982544,730.127869 470.564545,734.109253 466.705048,736.581116 
	C466.001526,736.189880 465.281677,736.032104 465.194702,735.705750 
	C462.852264,726.912292 455.486938,724.631348 448.079102,722.210022 
	C411.113678,710.127625 377.829315,691.826599 350.365082,663.844604 
	C340.420166,653.712280 331.686249,642.563721 323.549805,630.945129 
	C322.723328,629.765015 321.519531,628.674805 322.007507,626.395935 
	C324.994354,626.993774 327.111908,629.478210 329.843781,630.188171 
	C340.569519,632.975708 347.298706,640.574585 354.288452,648.558228 
	C376.052216,673.416870 403.517426,688.810486 436.280853,693.228271 
	C455.724670,695.850037 475.201324,693.939087 493.842834,686.887939 
	C494.774139,686.535706 495.676636,686.092285 496.554626,685.620789 
	C496.977814,685.393494 497.312561,685.001648 497.737244,684.642151 
	C497.646210,682.445190 495.697845,681.732849 494.429901,680.590759 
	C487.374084,674.235229 480.207397,668.002686 473.156952,661.641235 
	C471.303894,659.969238 469.021301,657.847107 472.123505,655.527649 
	C474.909302,653.444885 476.906006,648.081238 481.868744,652.448608 
	C487.871918,657.731628 493.932343,662.949585 499.975647,668.186890 
	C521.708801,687.021423 547.235962,694.753601 575.646301,693.985718 
	C615.880432,692.898132 647.703308,674.964233 673.756470,644.771240 
M515.708069,708.750732 
	C516.184509,706.139343 516.526733,703.494080 517.175232,700.926147 
	C517.819092,698.376343 515.766296,697.904541 514.429993,696.805237 
	C512.721863,695.399780 511.183868,695.698425 509.479218,696.921387 
	C507.971893,698.002930 507.067505,699.081726 507.731812,701.062073 
	C509.676300,706.858765 509.684814,712.822510 509.034729,718.813354 
	C508.742310,721.508057 510.277985,723.325195 512.505310,723.341858 
	C515.002625,723.360657 516.604187,721.632263 516.207947,718.598938 
	C515.822632,715.648865 515.845886,712.645386 515.708069,708.750732 
z"/>
<path fill="#000000" opacity="1.000000" stroke="none" 
	d="
M374.803467,388.827271 
	C402.685730,356.953461 437.330109,337.575623 478.358459,329.220886 
	C483.933899,328.085510 488.304688,330.467682 493.765198,332.606140 
	C490.491577,337.537292 486.771332,340.995880 481.575317,342.033447 
	C419.219116,354.484222 376.746582,390.649261 353.098938,449.386871 
	C351.926544,452.298950 350.696808,455.187958 349.394501,458.326996 
	C345.799622,457.404327 343.385315,455.036194 340.673187,453.297150 
	C338.416229,451.850037 339.706909,449.703217 340.344696,447.886536 
	C347.421448,427.728668 357.754883,409.400543 371.345154,392.913116 
	C372.404663,391.627716 373.494019,390.366943 374.803467,388.827271 
z"/>
<path fill="#000000" opacity="1.000000" stroke="none" 
	d="
M584.035156,674.177124 
	C571.715210,679.463745 559.392456,683.354492 546.540039,685.693054 
	C541.721985,686.569702 537.825134,685.126099 532.926514,682.901184 
	C536.762207,678.808716 539.423889,674.721375 545.049255,673.485413 
	C587.333496,664.195740 621.958801,642.563354 648.491638,608.308411 
	C659.053406,594.672852 667.253723,579.617554 673.472961,563.506104 
	C674.131287,561.800720 674.912048,560.140930 675.681641,558.481140 
	C675.880981,558.051208 676.253235,557.701538 676.743774,557.054016 
	C679.454773,558.693726 682.070984,560.100769 684.491028,561.788879 
	C686.945923,563.501282 685.421753,565.757935 684.762573,567.669128 
	C678.511353,585.794495 669.232117,602.300964 657.443604,617.357727 
	C637.867004,642.361633 613.452942,661.217651 584.035156,674.177124 
z"/>
<path fill="#000000" opacity="1.000000" stroke="none" 
	d="
M429.854767,339.929932 
	C382.310944,363.304352 350.125244,399.691895 333.972137,449.468872 
	C333.236359,449.685181 333.072571,449.788818 332.925873,449.768585 
	C322.508545,448.331146 322.131561,447.983856 325.450806,437.977966 
	C337.776978,400.820953 360.897217,371.590576 391.917023,348.274841 
	C401.939545,340.741516 412.810822,334.595856 424.187256,329.334991 
	C437.731506,323.071625 451.934479,324.262543 466.357666,325.873383 
	C453.859802,329.527863 441.808380,334.093262 429.854767,339.929932 
z"/>
<path fill="#000000" opacity="1.000000" stroke="none" 
	d="
M649.230713,636.226013 
	C667.191956,617.386597 680.405640,595.991455 689.498413,572.008179 
	C692.054749,565.265503 692.109131,565.287598 699.103577,567.585938 
	C699.727234,567.790894 700.361267,567.964539 700.994202,568.153870 
	C702.144836,570.799683 700.968323,573.145264 700.240356,575.464539 
	C690.230957,607.353943 671.474915,633.476318 646.755310,655.474609 
	C633.020203,667.697632 617.992126,678.191528 601.125183,685.757690 
	C587.941040,691.671814 574.051453,690.622131 559.959290,689.305420 
	C594.199646,679.172485 623.996643,661.860107 649.230713,636.226013 
z"/>
<path fill="#000000" opacity="1.000000" stroke="none" 
	d="
M540.718872,330.184662 
	C552.249634,329.031464 562.491089,332.842438 572.637573,336.357971 
	C599.340088,345.609894 622.541870,360.589935 642.505188,380.576721 
	C644.474670,382.548523 646.781677,384.315338 647.764709,387.634247 
	C644.600830,389.262634 641.443604,390.942261 638.234619,392.516266 
	C636.609558,393.313354 635.828796,391.888794 634.952637,390.961273 
	C611.362488,365.987000 582.397461,350.609497 549.162354,342.810394 
	C544.713562,341.766449 540.802002,338.511505 536.217102,332.517883 
	C536.876648,330.495331 538.879639,330.919342 540.718872,330.184662 
z"/>
<path fill="#000000" opacity="1.000000" stroke="none" 
	d="
M345.315613,602.057617 
	C336.728882,601.763489 330.112091,599.279358 326.701874,590.508606 
	C322.591248,579.936646 318.964478,569.238525 315.702423,558.394531 
	C313.671356,551.642761 311.245026,545.227112 302.086578,544.777649 
	C303.279358,539.262756 306.321686,535.995728 311.077728,534.756409 
	C315.249420,533.669373 316.971954,531.291992 317.679749,527.230469 
	C318.726410,521.224915 321.173553,519.630493 327.947876,519.641174 
	C334.886719,519.652100 339.621765,522.776245 340.997955,528.251587 
	C342.269470,533.310486 339.825165,538.339233 335.098145,540.784241 
	C330.169281,543.333496 327.344177,540.112976 324.516357,537.055054 
	C323.149048,537.404114 323.520447,538.350281 323.661255,539.098572 
	C327.475189,559.367859 334.215729,578.610474 343.889862,596.831543 
	C344.717896,598.391113 346.081970,599.836975 345.315613,602.057617 
z"/>
<path fill="#000000" opacity="1.000000" stroke="none" 
	d="
M715.248840,473.076477 
	C717.485840,474.300293 719.953308,473.033783 721.947083,474.924194 
	C720.904785,479.630890 717.828308,482.698425 713.498169,484.419739 
	C709.257507,486.105499 706.740845,488.796234 705.929138,493.397064 
	C705.109009,498.045593 702.422302,500.590149 697.235229,500.394287 
	C690.192017,500.128326 684.240967,496.964508 682.570801,492.000702 
	C681.225769,488.003326 683.269287,482.180389 686.835571,479.528809 
	C691.265076,476.235443 695.239624,477.654388 699.785156,481.377441 
	C694.965088,459.708099 688.817932,439.538300 677.932068,420.723114 
	C688.620605,420.028595 693.232544,422.820221 696.945557,431.243408 
	C701.722839,442.080750 705.092896,453.412018 708.907532,464.587921 
	C710.067749,467.987091 711.703308,470.995636 715.248840,473.076477 
z"/>
<path fill="#000000" opacity="1.000000" stroke="none" 
	d="
M461.486389,681.749878 
	C432.538910,672.094055 406.482178,658.449585 384.697235,635.852722 
	C388.916962,634.179016 392.107849,632.954102 395.264801,631.647095 
	C397.421906,630.754150 398.718964,632.114746 400.086914,633.332214 
	C421.668610,652.538513 446.588928,665.309509 474.623169,672.143494 
	C482.235138,673.999084 485.160004,676.200134 489.884888,683.072144 
	C486.636658,685.783386 482.853668,686.624207 478.864960,685.851196 
	C473.156555,684.744812 467.527802,683.227661 461.486389,681.749878 
z"/>
<path fill="#000000" opacity="1.000000" stroke="none" 
	d="
M616.258423,351.789917 
	C598.800781,340.629364 580.390625,332.399475 560.797913,326.382538 
	C568.357666,323.989349 575.905212,324.498535 583.427429,325.112030 
	C598.610962,326.350281 611.211060,334.003479 623.529846,341.962372 
	C639.418457,352.227600 653.575134,364.600983 665.926941,378.973328 
	C667.095032,380.332550 668.548035,381.567017 668.842957,383.505371 
	C662.233154,387.035126 655.208435,385.858246 650.444153,380.590790 
	C640.442322,369.532654 629.148682,359.990540 616.258423,351.789917 
z"/>
<path fill="#000000" opacity="1.000000" stroke="none" 
	d="
M451.557434,684.395874 
	C456.258789,685.951965 460.892883,686.496155 464.992279,688.565002 
	C464.968903,689.031738 464.945557,689.498413 464.922211,689.965149 
	C459.790741,690.246826 454.658661,690.775452 449.527893,690.763123 
	C434.947540,690.728149 421.862427,685.892822 409.591888,678.231934 
	C393.990906,668.491760 379.060211,657.956116 366.614441,644.256836 
	C365.305969,642.816589 363.550995,641.600586 363.467346,639.353638 
	C370.923981,636.039856 377.357788,637.389038 382.930389,642.867798 
	C402.413086,662.022705 425.778137,674.838745 451.557434,684.395874 
z"/>
<path fill="#000000" opacity="1.000000" stroke="none" 
	d="
M348.660767,593.262207 
	C340.116577,578.623413 335.170929,563.071899 331.322601,547.015747 
	C334.475067,545.203857 337.597443,545.844910 340.449036,545.171021 
	C343.647919,544.415161 343.496796,547.711792 344.004913,549.513855 
	C347.535767,562.036621 352.442596,573.998657 358.453430,585.505981 
	C360.833771,590.062866 363.642792,594.394287 366.186768,598.868042 
	C366.977142,600.257996 368.402344,601.417847 368.098236,603.285217 
	C359.661530,606.356812 355.066376,604.792603 351.022400,597.502319 
	C350.297211,596.194885 349.564423,594.891785 348.660767,593.262207 
z"/>
<path fill="#000000" opacity="1.000000" stroke="none" 
	d="
M675.726501,460.196808 
	C671.284668,446.860687 665.188477,434.700409 658.378174,422.968262 
	C665.479492,417.913086 670.546753,419.079193 674.254700,426.000366 
	C682.141174,440.721283 688.711426,455.925720 692.014648,472.567932 
	C689.033752,474.959381 685.314453,474.033539 682.007812,474.685059 
	C680.315796,475.018463 679.940613,472.839233 679.467102,471.460327 
	C678.224792,467.842194 677.043762,464.203003 675.726501,460.196808 
z"/>
<path fill="#000000" opacity="1.000000" stroke="none" 
	d="
M477.264130,363.861603 
	C471.433960,358.724487 471.366516,358.651550 476.835114,353.593719 
	C482.080475,348.742340 487.440796,344.012177 492.832336,339.322754 
	C499.408844,333.602722 499.453461,333.632111 507.046173,338.137970 
	C508.290009,338.876068 509.767822,339.395660 510.546783,341.138947 
	C508.723236,343.975311 505.699677,345.507477 503.239075,347.631836 
	C496.948456,353.062805 490.552856,358.375977 484.374084,363.930756 
	C481.929138,366.128754 479.876129,366.427612 477.264130,363.861603 
z"/>
<path fill="#000000" opacity="1.000000" stroke="none" 
	d="
M526.301147,680.794800 
	C522.725159,679.065796 519.228210,677.908813 516.548950,675.266602 
	C516.736267,674.643311 516.727234,674.015564 517.032227,673.753845 
	C525.865662,666.175232 534.623596,658.502319 543.636353,651.141602 
	C548.021606,647.560059 550.005066,652.680725 552.659973,654.520996 
	C555.558716,656.530396 553.649902,658.573975 551.848145,660.190308 
	C544.666687,666.632446 537.448059,673.033203 530.214661,679.417053 
	C529.227234,680.288513 528.143005,681.132812 526.301147,680.794800 
z"/>
<path fill="#000000" opacity="1.000000" stroke="none" 
	d="
M346.356110,498.800964 
	C339.269043,499.745209 336.288483,497.124634 336.654205,490.857971 
	C336.939941,485.962189 337.406677,481.101257 338.476715,476.243347 
	C345.709717,478.717102 348.959106,488.163055 346.356110,498.800964 
z"/>
<path fill="#000000" opacity="1.000000" stroke="none" 
	d="
M680.231262,533.476562 
	C677.894714,529.112793 676.652039,524.975952 678.390015,520.435913 
	C689.123413,522.636353 691.007141,526.784119 687.138855,539.835449 
	C683.749939,539.052856 682.320740,536.155640 680.231262,533.476562 
z"/>
</svg>